<svg id="Layer_1" data-name="Layer 1" xmlns="http://www.w3.org/2000/svg" xmlns:xlink="http://www.w3.org/1999/xlink" viewBox="0 0 584.43 176.71"><defs><linearGradient id="linear-gradient" y1="88.36" x2="584.43" y2="88.36" gradientUnits="userSpaceOnUse"><stop offset="0" stop-color="#902ad4"/><stop offset="1" stop-color="#2277da"/></linearGradient></defs><path d="M580.1,3.48a13.61,13.61,0,0,0-15.8-1.7,13.77,13.77,0,0,0-6.3,12c0,5.1,4.5,10.6,9.9,12.2,3.3,1,4.5.8,8.5-.9C585.3,21.08,587.2,10.28,580.1,3.48ZM576,22.38c-7.4,3.9-14.9-.8-15-9.3,0-9,9.9-13.5,16.9-7.6A10.11,10.11,0,0,1,576,22.38Zm.3-5.8c-1.5-2.5-1.7-3.7-.9-5,1.9-2.9-.5-5.2-5.8-5.5l-4.6-.3v7c0,6.4.2,7.1,2,7.1,1.5,0,2-.7,2-2.5,0-1.4.6-2.5,1.3-2.5s1.9,1.1,2.5,2.5a3.94,3.94,0,0,0,3.3,2.5h2.1Zm-5.5-4.9c-1.1.2-1.8-.3-1.8-1.3,0-1.7,3-1.8,3.3,0C572.4,10.88,571.7,11.48,570.8,11.68ZM552,.88v125H536V.88ZM450,8.48c0,2.8-3.2,6.4-5.7,6.4-1.3,0-4.9,5.3-11.7,17-8.9,15.4-11.5,18.6-13,16.2-.3-.5,3.9-8.6,9.3-18,6.5-11.3,9.5-17.5,9-18.4-1.4-2.1-1-4.4,1.2-7.2,1.1-1.4,2.9-2.6,3.8-2.6C445.8,1.88,450,5.78,450,8.48ZM346.6,66.88l-.3,6.2c-1.1,19.5-4.7,28.5-15.6,39.3-8.1,8.1-14.8,11.8-25.2,14-20.4,4.3-38.3-1.1-53-15.9-15.6-15.8-21-35.6-15.5-57,2.8-11,6.3-17,15.5-26.1,8.7-8.8,16.5-13.6,26.1-16,9.1-2.2,28.2-1.5,35.9,1.5A62.94,62.94,0,0,1,336,27l5.3,5.1-11.5,11.5-5.1-5.4a44.86,44.86,0,0,0-12.6-9.1c-7.2-3.5-7.9-3.7-17.5-3.7-9.2,0-10.7.3-16.9,3.2-7.5,3.6-16.4,11.4-20.1,17.7-6.8,11.6-7.6,28.7-1.9,40.9,9.8,20.7,35.2,30.9,53.7,21.5,9-4.6,17.6-15.5,18.8-23.8l.3-2.5-14.2-.3-14.3-.3V66.88ZM60.5,29a40.55,40.55,0,0,0-7.3-9.1c-7.2-6.4-11-7.3-33.4-7.8L0,11.68v114.2H17l.2-23.3.3-23.2,10.5-.6c16.7-.9,26.4-6,32.5-17,2.8-5.1,3-6.1,3-16.4S63.3,34.08,60.5,29ZM45.2,55.58c-3.5,5-9.8,7.4-19.4,7.6l-8.3.2-.3-17c-.1-9.3,0-17.6.3-18.4.9-2.3,15.4-.9,21.2,2.1,7,3.5,8.8,6.5,8.8,15.1C47.5,51.08,47.1,53,45.2,55.58Zm390,16a45,45,0,0,0-19.7-20.3c-5.5-2.6-7.1-2.9-18-3.2-12-.3-12-.3-19.3,3.2-12.1,5.9-21,17-22.9,28.6-.5,2.5-.6,8.5-.3,13.5.6,10.3,3.4,17.2,9.9,24.6,11.8,13.3,33.3,17.7,49.6,10.1,7.2-3.4,16.9-11.8,16.1-13.9-.3-.8-.1-1.1.4-.8,1.1.7,5.2-7.3,7-13.7C440.1,91.78,438.9,79.68,435.2,71.58Zm-4.1,24.2c-4.2,23.2-29.6,36-50,25-19.2-10.1-25.1-34.3-12.5-51.2,9.5-13,26.5-18.1,40.5-12.4A35.91,35.91,0,0,1,430.7,82C432.2,87.78,432.2,89.48,431.1,95.78Zm-14.3-25.9c-8-8-22-10.5-32.3-5.6-16.8,7.8-21.5,30.2-9.4,44.1,5.4,6.1,11.1,8.8,19.9,9.3,6.8.4,8.5.1,13.1-2C426.3,107.18,430.7,83.78,416.8,69.88Zm-21.2,45.8a30.22,30.22,0,0,1-9.7-2.2,30.45,30.45,0,0,1-13-13.1c-2.5-5.4-2.5-15.6,0-21.1,5.9-13,21.8-19,34.6-13a25.91,25.91,0,0,1,15.1,20.9C424.4,102.78,411.2,116.78,395.6,115.68Zm4.4-36.9c0,2.5,1.5,4.1,3.7,4.1,1.5,0,2.3.5,2,1.2a1.63,1.63,0,0,1-1.9,1c-.9-.1-2.5,1.3-3.6,3.2a7.66,7.66,0,0,1-5.3,4.1l-3.4.8,4.8,4.2c4.2,3.9,5.9,6.5,4.1,6.5-1.1,0-12.9-11.3-12.9-12.4,0-.6,1.4-1,3-.8,3.1.3,9.3-3.3,8-4.7-.4-.3-3-.6-5.8-.6-3.1,0-5.2-.5-5.4-1.3-.4-.9,1.2-1.2,5.6-1.2,3.4,0,6.1-.4,6.1-.9,0-1.9-4.5-4.1-8.2-4.1-2.1,0-3.8-.5-3.8-1s3.8-1,9.5-1,9.5.4,9.5,1-1.3,1-3,1S400,78.28,400,78.78ZM125,53.88v4c0,2.2-.3,4-.6,4a27.88,27.88,0,0,1-4.5-3.3c-6.5-5.6-17.3-8-26.4-5.8-8.9,2.2-17.7,9.9-22.2,19.6-2.6,5.5-2.8,7-2.8,17.5s.2,12,2.8,17.5c5.5,11.8,15.6,19.2,27.5,20.2,8.3.7,13.5-.7,20.2-5.2,2.9-1.9,5.4-3.5,5.6-3.5s.4,1.6.4,3.5v3.5h16v-72Zm-5.9,53.3c-3.9,4.3-7.8,5.9-14,6-10.6.1-17.6-6.2-20.2-18.2-2.1-10.2,2.8-21.8,11.1-26.2,4.2-2.3,12.7-2.5,17.3-.5,7.6,3.2,12.1,11.4,12,22.1C125.3,98,123.7,102.28,119.1,107.18ZM502,53.88v8.2l-3.7-3a31.84,31.84,0,0,0-28.2-5.7c-10.4,2.9-19.4,11.9-22.6,22.8-1.9,6.4-1.9,20.9-.1,27.2,2.1,6.7,7.7,14.8,12.9,18.3a34,34,0,0,0,21.9,5.8c5.9-.6,14.3-4.1,16.7-7,2.3-2.7,3.7-1.9,3.3,1.9l-.4,3.5H518v-72Zm.8,38.7c-.4,6.1-1,8.1-3.4,11.6-3.8,5.3-8.4,8.4-13.8,9.2-13.2,2-23.6-8.4-23.6-23.6,0-17.6,14.8-28,29.9-21.1,3.8,1.7,8.4,7.6,10.2,12.9C502.8,83.68,503,88.28,502.8,92.58ZM230,54.68a8.72,8.72,0,0,1-1.3,2.7c-.8,1.1-8.9,16.6-18,34.5s-21.3,41.5-27,52.5l-10.3,20-9.2.5c-5.1.3-9.2.1-9.2-.3s3.6-7.6,8-15.8c21-39.2,19.5-36,17.9-38.8-.9-1.4-3.2-5.8-5.4-9.6s-8.2-14.9-13.5-24.5-10.2-18.5-10.9-19.8l-1.2-2.2h18.9l10.9,20.5c5.9,11.2,11,20.5,11.3,20.5s5.1-9.2,10.8-20.5L212,53.88h9C225.9,53.88,230,54.18,230,54.68Zm135.1,94.1c-8.9,15.4-9.9,17.5-9,19.9.8,2.1.6,3.1-.9,5.1-2.3,3.2-5.5,3.8-8.8,1.7-4.3-2.9-2.7-9.9,2.5-11.1,2.5-.5,4.2-3,12.7-17.6,5.4-9.3,10-16.9,10.3-16.9C375.4,130,374.5,132.38,365.1,148.78Z" fill="url(#linear-gradient)"/></svg>